<svg xmlns="http://www.w3.org/2000/svg" style="display:none">
  <defs>
    <symbol id="icon-facebook" viewBox="0 0 32 32">
      <path d="M19 6h5V0h-5c-3.86 0-7 3.14-7 7v3H8v6h4v16h6V16h5l1-6h-6V7c0-.55.45-1 1-1z"></path>
    </symbol>
    <symbol id="icon-instagram" viewBox="0 0 32 32">
      <path d="M16 0c-4.35 0-4.89.02-6.6.1-1.7.07-2.87.35-3.89.74a7.86 7.86 0 0 0-2.84 1.85 7.86 7.86 0 0 0-1.85 2.84c-.4.1-.67 2.19-.74 3.89C.02 11.11 0 11.65 0 16s.02 4.89.1 6.6c.07 1.7.35 2.87.74 3.89.2.5.45.96.8 1.4.34.42.74.8 1.18 1.17.44.35.9.6 1.41.8 1.02.39 2.18.67 3.89.74 1.7.08 2.25.1 6.6.1s4.89-.02 6.6-.1c1.7-.07 2.87-.35 3.89-.74a8.13 8.13 0 0 0 4.25-4.25c.39-1.02.67-2.18.74-3.89.08-1.7.1-2.25.1-6.6s-.02-4.89-.1-6.6c-.07-1.7-.35-2.87-.74-3.89a7.86 7.86 0 0 0-1.85-2.84 7.86 7.86 0 0 0-2.84-1.85c-1.02-.39-2.18-.67-3.89-.74C20.89.02 20.35 0 16 0zm0 2.88c4.27 0 4.78.02 6.47.1 1.56.07 2.41.33 2.98.55.75.29 1.28.64 1.84 1.2.56.56.91 1.1 1.2 1.84.22.57.48 1.42.55 2.98.08 1.69.1 2.2.1 6.47s-.02 4.78-.1 6.47c-.07 1.56-.33 2.41-.55 2.98-.29.75-.64 1.28-1.2 1.84-.56.56-1.1.91-1.84 1.2-.57.22-1.42.48-2.98.55-1.69.08-2.2.1-6.47.1s-4.78-.02-6.47-.1c-1.56-.07-2.41-.33-2.98-.55a5.04 5.04 0 0 1-1.84-1.2 5.04 5.04 0 0 1-1.2-1.84c-.22-.57-.48-1.42-.55-2.98-.08-1.69-.1-2.2-.1-6.47s.02-4.78.1-6.47c.07-1.56.33-2.41.55-2.98.29-.75.64-1.28 1.2-1.84.56-.56 1.1-.91 1.84-1.2.57-.22 1.42-.48 2.98-.55 1.69-.08 2.2-.1 6.47-.1zm0 4.9c-4.54 0-8.22 3.68-8.22 8.22s3.68 8.22 8.22 8.22 8.22-3.68 8.22-8.22-3.68-8.22-8.22-8.22zm0 13.56c-2.95 0-5.34-2.39-5.34-5.34s2.39-5.34 5.34-5.34 5.34 2.39 5.34 5.34-2.39 5.34-5.34 5.34zm8.55-14.03c0 1.06-.86 1.92-1.92 1.92s-1.92-.86-1.92-1.92.86-1.92 1.92-1.92 1.92.86 1.92 1.92z"></path>
    </symbol>
    <symbol id="icon-youtube" viewBox="0 0 32 32">
      <path d="M31.67 8.16a4 4 0 0 0-2.82-2.82C26.36 4.67 16 4.67 16 4.67s-10.36 0-12.85.67a4 4 0 0 0-2.82 2.82C.33 10.65.33 15.84.33 15.84s0 5.19.67 7.68a4 4 0 0 0 2.82 2.82c2.49.67 12.85.67 12.85.67s10.36 0 12.85-.67a4 4 0 0 0 2.82-2.82c.67-2.49.67-7.68.67-7.68s0-5.19-.67-7.68zm-18.84 11.5V12.18l8.28 3.74-8.28 3.74z"></path>
    </symbol>
  <symbol id="icon-gantel" viewBox="0 0 32 32">
  <path d="M26 10h-2V6c0-1.1-.9-2-2-2h-8c-1.1 0-2 .9-2 2v4H10c-3.31 0-6 2.69-6 6s2.69 6 6 6h2v4c0 1.1.9 2 2 2h8c1.1 0 2-.9 2-2v-4h2c3.31 0 6-2.69 6-6s-2.69-6-6-6zM14 6h8v4h-8V6zm8 20h-8v-4h8v4zm4-6h-2v-2h-4v2h-8v-2h-4v2H10c-2.21 0-4-1.79-4-4s1.79-4 4-4h2v2h4v-2h8v2h4v-2h2c2.21 0 4 1.79 4 4s-1.79 4-4 4z"></path>
</symbol>
<symbol id="icon-commas" viewBox="0 0 44 34">
  <path d="M16.48 33.32H0V16.36C0 8.76 3.08 3.56 9.24.76l5.04 5.32c-3.64 1.4-5.04 3.92-5.04 7v1.4h7.24v18.84Zm27.52 0H27.52V16.36c0-7.6 3.08-12.8 9.24-15.6l5.04 5.32c-3.64 1.4-5.04 3.92-5.04 7v1.4h7.24v18.84Z"/>
</symbol>
</defs>
</svg>